<svg id="iconfinder-icon_1_" data-name="iconfinder-icon (1)" xmlns="http://www.w3.org/2000/svg" width="8.746" height="9" viewBox="0 0 8.746 9">
  <defs>
    <style>
      .cls-1 {
        fill: none;
      }

      .cls-2 {
        fill: silver;
        fill-rule: evenodd;
      }
    </style>
  </defs>
  <g id="Group_3" data-name="Group 3" transform="translate(0)">
    <rect id="canvas_background" class="cls-1" width="8.68" height="8.934"/>
  </g>
  <g id="Group_4" data-name="Group 4" transform="translate(0.013)">
    <path id="svg_2" class="cls-2" d="M36.367,32A4.5,4.5,0,0,0,32,36.615a4.6,4.6,0,0,0,2.986,4.378.223.223,0,0,0,.3-.223c0-.111,0-.4-.006-.786-1.214.279-1.472-.619-1.472-.619a1.211,1.211,0,0,0-.485-.675c-.4-.287.029-.281.029-.281a.922.922,0,0,1,.669.476.9.9,0,0,0,1.271.384,1,1,0,0,1,.277-.617,2,2,0,0,1-1.988-2.28,1.838,1.838,0,0,1,.448-1.238,1.747,1.747,0,0,1,.043-1.221s.366-.125,1.2.472a3.943,3.943,0,0,1,2.187,0c.834-.6,1.2-.472,1.2-.472a1.747,1.747,0,0,1,.043,1.221,1.846,1.846,0,0,1,.448,1.238,1.991,1.991,0,0,1-1.994,2.276,1.138,1.138,0,0,1,.3.854c0,.617-.006,1.115-.006,1.266a.221.221,0,0,0,.3.221,4.59,4.59,0,0,0,2.988-4.374A4.5,4.5,0,0,0,36.367,32Z" transform="translate(-32 -32)"/>
  </g>
</svg>
