<svg id="iconfinder-icon_3_" data-name="iconfinder-icon (3)" xmlns="http://www.w3.org/2000/svg" width="8.552" height="9" viewBox="0 0 8.552 9">
  <defs>
    <style>
      .cls-1 {
        fill: none;
      }

      .cls-2 {
        fill: #1e1e1e;
      }

      .cls-3 {
        fill: silver;
      }

      .cls-4 {
        fill: #fff;
      }
    </style>
  </defs>
  <g id="Group_6" data-name="Group 6" transform="translate(0 0)">
    <rect id="canvas_background" class="cls-1" width="8.552" height="9" transform="translate(0 0)"/>
  </g>
  <g id="Group_7" data-name="Group 7" transform="translate(0 0)">
    <path id="svg_2" class="cls-2" d="M27.352,38.943a1.118,1.118,0,0,1-1.118,1.119H19.918A1.118,1.118,0,0,1,18.8,38.943V32.619A1.118,1.118,0,0,1,19.918,31.5h6.316a1.118,1.118,0,0,1,1.118,1.119Z" transform="translate(-18.8 -31.062)"/>
    <path id="svg_3" class="cls-3" d="M27.352,14.524A1.148,1.148,0,0,1,26.234,15.7H19.918A1.148,1.148,0,0,1,18.8,14.524V7.876A1.148,1.148,0,0,1,19.918,6.7h6.316a1.148,1.148,0,0,1,1.118,1.176Z" transform="translate(-18.8 -6.7)"/>
    <path id="svg_4" class="cls-4" d="M119.667,145.923a1.546,1.546,0,0,0,.8-.5,3.366,3.366,0,0,1-3.428.012.842.842,0,0,0,.324.293c.13.074.271.134.411.2l-.051.065a2.131,2.131,0,0,0-.143.173.2.2,0,0,1-.22.094,1.774,1.774,0,0,1-1.078-.473.419.419,0,0,1-.132-.36,5.758,5.758,0,0,1,.469-1.952c.037-.087.084-.17.121-.256a.293.293,0,0,1,.127-.138,2.4,2.4,0,0,1,.909-.362,1.972,1.972,0,0,1,.205-.023.126.126,0,0,1,.077.037,4.322,4.322,0,0,0-.788.325c-.1.055-.192.12-.288.18a.648.648,0,0,0-.062.049,3.973,3.973,0,0,1,3.516-.014,3.263,3.263,0,0,0-1.054-.514.109.109,0,0,1,.127-.062,2.327,2.327,0,0,1,1.111.408.254.254,0,0,1,.079.085,5.624,5.624,0,0,1,.533,1.6,5.148,5.148,0,0,1,.075.786.168.168,0,0,1-.035.1,1.538,1.538,0,0,1-.856.532,3.471,3.471,0,0,1-.407.062.084.084,0,0,1-.066-.018C119.847,146.139,119.76,146.035,119.667,145.923Zm-1.767-.7a.418.418,0,0,0,.264-.09.546.546,0,0,0,.191-.392.454.454,0,0,0-.64-.431.482.482,0,0,0-.253.571A.455.455,0,0,0,117.9,145.224Zm1.611.007a1.088,1.088,0,0,0,.154-.037.486.486,0,0,0,.189-.758.442.442,0,0,0-.654-.039.485.485,0,0,0-.139.426.479.479,0,0,0,.451.408Z" transform="translate(-114.425 -140.201)"/>
  </g>
</svg>
