<svg id="iconfinder-icon" xmlns="http://www.w3.org/2000/svg" width="9" height="9" viewBox="0 0 9 9">
  <defs>
    <style>
      .cls-1 {
        fill: none;
      }

      .cls-2 {
        fill: silver;
      }
    </style>
  </defs>
  <g id="Group_1" data-name="Group 1" transform="translate(0)">
    <rect id="canvas_background" class="cls-1" width="8.847" height="8.826"/>
  </g>
  <g id="Group_2" data-name="Group 2" transform="translate(0.006 0.016)">
    <path id="svg_2" class="cls-2" d="M6.92,14.892H5V9H6.92Zm7.041,0h-1.92V11.745c0-.82-.318-1.229-.947-1.229a.937.937,0,0,0-.974.686v3.69H8.2s.026-5.3,0-5.892H9.716l.117,1.178h.04a2.177,2.177,0,0,1,1.886-.989,2.078,2.078,0,0,1,1.592.59,2.42,2.42,0,0,1,.611,1.785Z" transform="translate(-4.968 -5.908)"/>
    <ellipse id="svg_4" class="cls-2" cx="0.986" cy="0.954" rx="0.986" ry="0.954" transform="translate(0)"/>
  </g>
</svg>
